<?xml version="1.0" encoding="utf-8"?>
<!-- Generator: Adobe Illustrator 21.0.0, SVG Export Plug-In . SVG Version: 6.00 Build 0)  -->
<svg version="1.1" id="Layer_1" xmlns="http://www.w3.org/2000/svg" xmlns:xlink="http://www.w3.org/1999/xlink" x="0px" y="0px"
	 viewBox="0 0 75 75" style="enable-background:new 0 0 75 75;" xml:space="preserve">
<style type="text/css">
	.st0{fill:#4D4D4D;}
	.st1{fill:#A258A3;}
</style>
<path class="st0" d="M51.1,38.2c-1.1-0.6-2.3-1-3.5-1.4c3.9-2.9,6.4-7.5,6.4-12.7c0-8.8-7.1-15.9-15.9-15.9s-15.9,7.1-15.9,15.9
	c0,5.2,2.5,9.9,6.4,12.8c-3.6,1.2-6.9,3-9.8,5.4c-5.4,4.4-9.1,10.6-10.5,17.3c-0.4,2.1,0.1,4.3,1.5,6c1.3,1.7,3.4,2.6,5.5,2.6H44
	c1.3,0,2.3-1.1,2.3-2.3s-1.1-2.3-2.3-2.3H15.1c-1,0-1.6-0.6-1.9-0.9c-0.5-0.6-0.6-1.3-0.5-2.1C15.2,48.8,25.5,40.3,37.4,40
	c0.2,0,0.4,0,0.6,0s0.4,0,0.6,0c3.6,0.1,7.2,0.9,10.4,2.5c1.2,0.6,2.6,0.1,3.1-1.1C52.7,40.2,52.2,38.8,51.1,38.2z M38.6,35.3
	c-0.2,0-0.4,0-0.6,0c-0.2,0-0.4,0-0.6,0c-5.9-0.3-10.7-5.2-10.7-11.2c0-6.2,5.1-11.2,11.2-11.2s11.2,5.1,11.2,11.2
	C49.2,30.1,44.5,35,38.6,35.3z"/>
<path class="st1" d="M65.6,54.6h-6.4v-6.4c0-1.3-1.1-2.3-2.3-2.3s-2.3,1.1-2.3,2.3v6.4h-6.4c-1.3,0-2.3,1.1-2.3,2.3s1.1,2.3,2.3,2.3
	h6.4v6.4c0,1.3,1.1,2.3,2.3,2.3s2.3-1.1,2.3-2.3v-6.4h6.4c1.3,0,2.3-1.1,2.3-2.3S66.9,54.6,65.6,54.6z"/>
</svg>
