<svg xmlns="http://www.w3.org/2000/svg" viewBox="0 0 512 512" width="512" height="512"><style>.a{fill:#4d4d4d;}</style><path d="M173.8 280.5c-4.2 4.2-4.2 10.9 0 15.1 2.1 2.1 4.8 3.1 7.6 3.1 2.7 0 5.5-1 7.5-3.1l64-64c1-1 1.8-2.2 2.3-3.5 0.3-0.7 0.3-1.5 0.5-2.3 0.1-0.6 0.4-1.2 0.4-1.8 0-0.8-0.3-1.5-0.5-2.3 -0.1-0.6-0.1-1.2-0.4-1.7 -0.6-1.3-1.4-2.5-2.4-3.6l-63.9-63.9c-4.2-4.2-10.9-4.2-15.1 0 -4.2 4.2-4.2 10.9 0 15.1l45.8 45.8H32c-5.9 0-10.7 4.8-10.7 10.7S26.1 234.7 32 234.7h187.6L173.8 280.5z" class="a"/><path d="M444.6 0c-1.6 0-3.2 0.3-4.8 0.5C439 0.3 438.2 0 437.3 0h-256C151.9 0 128 23.9 128 53.3V160c0 5.9 4.8 10.7 10.7 10.7s10.7-4.8 10.7-10.7V53.3c0-17.6 14.4-32 32-32h204l-80.1 34.3c-17 7.3-27.9 23.9-27.9 42.3v328.7h-96c-15.3 0-28.4-10.7-31.6-15.1l-0.4-123.6c0-5.9-4.8-10.6-10.7-10.6 0 0 0 0 0 0 -5.9 0-10.6 4.8-10.6 10.7l0.5 124.3c-0.4 4.7 1.8 9.6 6.7 14.9 8.7 9.6 26 20.7 46.2 20.7h96v17.9c0 25.4 20.7 46.1 46.1 46.1 6.3 0 12.4-1.3 18.1-3.7l121.2-51.9c17-7.3 27.9-23.9 27.9-42.3V46.1C490.7 20.7 470 0 444.6 0zM469.3 414c0 9.9-5.9 18.8-15 22.7L333.1 488.7c-3.1 1.3-6.4 2-9.7 2 -13.6 0-24.7-11.1-24.7-24.7V98c0-9.9 5.9-18.8 15-22.7L434.9 23.3c3.1-1.3 6.4-2 9.7-2 13.6 0 24.7 11.1 24.7 24.7V414z" class="a"/><path d="M330.7 234.7c-5.9 0-10.7 4.8-10.7 10.7V288c0 5.9 4.8 10.7 10.7 10.7s10.7-4.8 10.7-10.7v-42.7C341.3 239.4 336.6 234.7 330.7 234.7z" class="a"/></svg>