<?xml version="1.0" encoding="utf-8"?>
<!-- Generator: Adobe Illustrator 21.0.0, SVG Export Plug-In . SVG Version: 6.00 Build 0)  -->
<svg version="1.1" id="Layer_1" xmlns="http://www.w3.org/2000/svg" xmlns:xlink="http://www.w3.org/1999/xlink" x="0px" y="0px"
	 viewBox="0 0 75 75" style="enable-background:new 0 0 75 75;" xml:space="preserve">
<style type="text/css">
	.st0{fill:#A258A3;}
	.st1{fill:#4D4D4D;}
</style>
<path class="st0" d="M26,40.6c-0.5,0.5-0.5,1.4,0,1.9c0.3,0.3,0.6,0.4,1,0.4c0.3,0,0.7-0.1,1-0.4l8.2-8.2c0.1-0.1,0.2-0.3,0.3-0.4
	c0-0.1,0-0.2,0.1-0.3c0-0.1,0.1-0.2,0.1-0.2c0-0.1,0-0.2-0.1-0.3c0-0.1,0-0.2-0.1-0.2c-0.1-0.2-0.2-0.3-0.3-0.5L28,24.2
	c-0.5-0.5-1.4-0.5-1.9,0c-0.5,0.5-0.5,1.4,0,1.9l5.9,5.9h-24c-0.8,0-1.4,0.6-1.4,1.4s0.6,1.4,1.4,1.4h24L26,40.6z"/>
<path class="st1" d="M60.8,4.4c-0.2,0-0.4,0-0.6,0.1c-0.1,0-0.2-0.1-0.3-0.1h-33c-3.8,0-6.9,3.1-6.9,6.9v13.8c0,0.8,0.6,1.4,1.4,1.4
	s1.4-0.6,1.4-1.4V11.3c0-2.3,1.9-4.1,4.1-4.1h26.3l-10.3,4.4c-2.2,0.9-3.6,3.1-3.6,5.5v42.4H26.9c-2,0-3.7-1.4-4.1-1.9l-0.1-15.9
	c0-0.8-0.6-1.4-1.4-1.4l0,0c-0.8,0-1.4,0.6-1.4,1.4l0.1,16c-0.1,0.6,0.2,1.2,0.9,1.9c1.1,1.2,3.4,2.7,6,2.7h12.4v2.3
	c0,3.3,2.7,5.9,5.9,5.9c0.8,0,1.6-0.2,2.3-0.5l15.6-6.7c2.2-0.9,3.6-3.1,3.6-5.5V10.4C66.7,7.1,64.1,4.4,60.8,4.4z M64,57.8
	c0,1.3-0.8,2.4-1.9,2.9l-15.6,6.7c-0.4,0.2-0.8,0.3-1.3,0.3c-1.8,0-3.2-1.4-3.2-3.2V17.1c0-1.3,0.8-2.4,1.9-2.9l15.6-6.7
	c0.4-0.2,0.8-0.3,1.3-0.3c1.8,0,3.2,1.4,3.2,3.2L64,57.8L64,57.8z"/>
<path class="st1" d="M46.6,34.7c-1,0-1.9,0.6-1.9,1.4v5.4c0,0.8,0.8,1.4,1.9,1.4c1,0,1.9-0.6,1.9-1.4v-5.5
	C48.5,35.3,47.7,34.7,46.6,34.7z"/>
</svg>
