<svg xmlns="http://www.w3.org/2000/svg" viewBox="0 0 151.8 133"><style type="text/css">  
	.st0{fill:#3C5A73;}
	.st1{fill:#55879B;}
	.st2{fill:#703C22;}
	.st3{fill:#39AE96;}
	.st4{fill:#177D74;}
	.st5{fill:#1C9585;}
	.st6{fill:#EDB59E;}
	.st7{fill:#7EADFC;}
	.st8{fill:#783C28;}
	.st9{fill:#B48255;}
	.st10{fill:#501E0F;}
</style><path class="st0" d="M27.7 128.2c-2.3 0-4.4-1.3-5.4-3.6 -1.3-3 0.1-6.4 3.1-7.7l15.1-6.5 -1.3-0.1c-3.2-0.4-5.5-3.3-5.2-6.5 0.4-3.2 3.3-5.5 6.5-5.2l23.2 2.7c2.6 0.3 4.8 2.3 5.1 5 0.4 2.6-1 5.2-3.5 6.2L30 127.7C29.3 128.1 28.5 128.2 27.7 128.2z"/><path class="st1" d="M49.1 121.7L22.4 111l7.1-2.5c3.1-1.1 4.6-4.5 3.6-7.5 -1.1-3.1-4.5-4.6-7.5-3.6l-21.7 7.7c-4.7 1.7-5.6 8.5-0.2 11 5.1 2.1 35.9 14.4 41 16.4 3 1.2 6.4-0.2 7.6-3.3C53.5 126.3 52.1 122.9 49.1 121.7z"/><path class="st2" d="M147.3 98.2h-8.2l4.6-15.7c0.6-2.1 2.9-3.4 5-2.7 1.1 0.3 1.9 1 2.5 2 0.5 1 0.6 2.1 0.3 3.2L147.3 98.2z"/><path class="st3" d="M35.9 98.2L89.3 2.4C89.7 1.5 90.6 1 91.6 1c1 0 1.9 0.5 2.3 1.4l53.4 95.9H35.9z"/><polygon class="st4" points="63.9 98.2 119.3 98.2 91.6 48.5 "/><polygon class="st5" points="91.6 48.5 91.6 48.5 63.9 98.2 91.6 98.2 "/><path class="st6" d="M78.6 75.8c-1.2-2.4-4.2-3.4-6.6-2.1l-12.7 6.4c-0.4-2-0.9-4.2-1.2-5.8 -1.4-6.4-5.9-10.5-11.5-10.5h-9.3 -3.9H20.3C14 63.8 8.8 69 8.7 75.3L8.7 87.1c0 1.6 0.8 3.1 2.1 4l9.8 6.9v5.8h25.9V73.6h0.3c1.3 0 1.8 2.5 1.9 2.8 0.9 4.3 2.5 11.9 2.5 12 0.3 1.5 1.3 2.8 2.7 3.4 0.7 0.3 1.4 0.5 2.1 0.5 0.8 0 1.5-0.2 2.2-0.5l18.4-9.4C78.9 81.2 79.8 78.3 78.6 75.8zM18.5 84.6l0.1-9.2c0-1 0.8-1.8 1.8-1.8h0.1V86L18.5 84.6z"/><path class="st7" d="M58.1 74.3c-1.4-6.4-5.9-10.5-11.5-10.5h-8.1c0 0 0 0 0 0 0.1 2.8-2.5 5.2-5.2 5.2 -2.9 0-5.1-2.4-5.2-5.2 0 0 0 0 0 0h-7.7C14 63.8 8.8 69 8.7 75.3l-0.1 6.8h9.8l0.1-6.8c0-1 0.8-1.8 1.8-1.8h0.1v30.2h25.9V73.6h0.3c1.3 0 1.8 2.5 1.9 2.8 0.2 1 1.2 5.7 1.5 7l9.3-3.5C58.9 78 58.5 75.9 58.1 74.3z"/><circle class="st6" cx="33.5" cy="50.4" r="10.1"/><path class="st8" d="M36.9 95.4c-0.2 0.9 0 1.8 0.6 2.6 1 1.3 2.9 1.5 4.2 0.5l36.6-29c1.3-1 1.5-2.9 0.5-4.2 -1-1.3-2.9-1.5-4.2-0.5L38 93.8C37.4 94.2 37.1 94.8 36.9 95.4z"/><path class="st9" d="M29.6 88.3c3 0.5 6-1.2 7.2-4 0.5-1.2-0.5-0.9 2.3-3.1 4.1-3.2 10.7-1.6 14.8 3.6 4.1 5.2 4.1 12 0.1 15.2 -1 0.8-2.3 1.3-3.6 1.6 -3 0.5-5.3 3-5.5 6.1 -0.2 3.3-1.6 6.3-4.1 8.2 -5.5 4.4-14.5 2.2-20.1-4.8 -5.6-7-5.6-16.3-0.1-20.7C23.2 88.4 26.4 87.8 29.6 88.3z"/><circle class="st10" cx="41.8" cy="94.6" r="3.9"/><path class="st10" d="M24 101.1l7.4 9.3c0.8 1 2.3 1.2 3.4 0.4 1-0.8 1.2-2.3 0.4-3.4l-7.4-9.3c-0.8-1-2.3-1.2-3.4-0.4C23.3 98.6 23.2 100.1 24 101.1z"/><path class="st10" d="M69 64.9c-0.2 0.7 0 1.5 0.5 2.1l5.5 7c0.8 1 2.3 1.2 3.4 0.4 1-0.8 1.2-2.3 0.4-3.4l-5.5-7c-0.8-1-2.3-1.2-3.4-0.4C69.4 64 69.1 64.4 69 64.9z"/><path class="st10" d="M64.4 68.5c-0.2 0.7 0 1.5 0.5 2.1l5.5 7c0.8 1 2.3 1.2 3.4 0.4 1-0.8 1.2-2.3 0.4-3.4l-5.5-7c-0.8-1-2.3-1.2-3.4-0.4C64.9 67.6 64.6 68 64.4 68.5z"/><path class="st6" d="M30.4 103.9c-1 0-2-0.3-2.8-0.9L10.7 91.1c-2.2-1.6-2.7-4.6-1.2-6.8 1.6-2.2 4.6-2.7 6.8-1.2L33.2 95c2.2 1.6 2.7 4.6 1.2 6.8C33.4 103.1 31.9 103.9 30.4 103.9z"/><path class="st1" d="M49.1 121.7L6 104.4l-2.1 0.8c-4.7 1.7-5.6 8.5-0.2 11 5.1 2.1 35.9 14.4 41 16.4 3 1.2 6.4-0.2 7.6-3.3C53.5 126.3 52.1 122.9 49.1 121.7z"/></svg>