<svg xmlns="http://www.w3.org/2000/svg" width="512" height="512" viewBox="0 0 262.9 262.9"><style>.a{fill:#a258a3;}</style><path d="M16.6 185.4v25.8c0 2.6 2.1 4.8 4.8 4.8h66.1c2.6 0 4.8-2.1 4.8-4.8v-26.1l13.6 8.9v39.6c0 2.6 2.1 4.8 4.8 4.8h24.3c1.3 0 2.5-0.5 3.4-1.4 0.9-0.9 1.4-2.1 1.4-3.4l-0.4-55.8c0-1.6-0.8-3-2.1-3.9l-26.3-18.1 3.1-4.3v1.3c0 2.6 2.1 4.8 4.8 4.8h52.9c2.6 0 4.8-2.1 4.8-4.8v-23.5c0-2.6-2.1-4.8-4.8-4.8h-27.9v-19.9c0-1.6-0.7-3-2-3.9l-28.5-20.1c-0.8-0.6-1.8-0.9-2.8-0.9H48.7c-2.6 0-4.8 2.1-4.8 4.8v54.3c0 2.6 2.1 4.8 4.7 4.8l8.8 0.1c-0.4 0.7-0.6 1.6-0.6 2.4l0.3 34.7H21.4C18.8 180.6 16.6 182.8 16.6 185.4zM77.5 110.5h3.4l-3.3 4.7L77.5 110.5zM26.2 190.2h35.8c1.3 0 2.5-0.5 3.4-1.4 0.9-0.9 1.4-2.1 1.4-3.4l-0.4-37.9 27.6-39c1-1.5 1.2-3.4 0.3-5 -0.8-1.6-2.5-2.6-4.2-2.6H72.6c-1.3 0-2.5 0.5-3.4 1.4 -0.9 0.9-1.4 2.1-1.4 3.4l0.2 21 -5.5 7.3 -9.1-0.1V89.2h55.6l25.2 17.8v22.2c0 2.6 2.1 4.8 4.8 4.8h27.9v14h-43.4v-11.2c0-2.1-1.3-3.9-3.3-4.5 -1.9-0.6-4.1 0.1-5.3 1.7l-14.7 20.1c-0.8 1-1.1 2.4-0.8 3.6 0.2 1.3 0.9 2.4 2 3.1l28.3 19.5 0.3 48.5h-14.7v-37.4c0-1.6-0.8-3.1-2.2-4L90.1 172.3c-1.5-1-3.3-1-4.9-0.2 -1.5 0.8-2.5 2.5-2.5 4.2v30.1H26.2V190.2z" class="a"/><path d="M118.1 66.1c0 15.9 12.9 28.8 28.8 28.8 15.9 0 28.8-12.9 28.8-28.8 0-15.9-12.9-28.8-28.8-28.8C131 37.3 118.1 50.2 118.1 66.1zM127.7 66.1c0-10.6 8.6-19.2 19.2-19.2 10.6 0 19.2 8.6 19.2 19.2 0 10.6-8.6 19.2-19.2 19.2C136.3 85.3 127.7 76.7 127.7 66.1z" class="a"/><path d="M81.4 226.9v28.8c0 4 3.2 7.2 7.2 7.2h150.5c4 0 7.2-3.2 7.2-7.2V7.2c0-4-3.2-7.2-7.2-7.2H89c-4 0-7.2 3.2-7.2 7.2V69.6H96.1V14.3h135.8v234.2H95.8v-21.6H81.4z" class="a"/></svg>