<?xml version="1.0" encoding="utf-8"?>
<!-- Generator: Adobe Illustrator 21.0.0, SVG Export Plug-In . SVG Version: 6.00 Build 0)  -->
<svg version="1.1" id="Layer_1" xmlns="http://www.w3.org/2000/svg" xmlns:xlink="http://www.w3.org/1999/xlink" x="0px" y="0px"
	 viewBox="0 0 75 75" style="enable-background:new 0 0 75 75;" xml:space="preserve">
<style type="text/css">
	.st0{fill:#A258A3;}
	.st1{fill:#4D4D4D;}
</style>
<path class="st0" d="M3,51v6.5c0,0.7,0.5,1.2,1.2,1.2h16.6c0.7,0,1.2-0.5,1.2-1.2V51l3.4,2.2v9.9c0,0.7,0.5,1.2,1.2,1.2h6.1
	c0.3,0,0.6-0.1,0.9-0.4s0.4-0.5,0.4-0.9l-0.1-14c0-0.4-0.2-0.8-0.5-1l-6.6-4.5l0.8-1.1v0.3c0,0.7,0.5,1.2,1.2,1.2H42
	c0.7,0,1.2-0.5,1.2-1.2V37c0-0.7-0.5-1.2-1.2-1.2h-7v-5c0-0.4-0.2-0.8-0.5-1l-7.2-5c-0.2-0.2-0.5-0.2-0.7-0.2H11.1
	c-0.7,0-1.2,0.5-1.2,1.2v13.6c0,0.7,0.5,1.2,1.2,1.2l2.2,0c-0.1,0.2-0.2,0.4-0.2,0.6l0.1,8.7h-9C3.6,49.8,3,50.4,3,51z M18.3,32.2
	h0.9l-0.8,1.2L18.3,32.2z M5.4,52.2h9c0.3,0,0.6-0.1,0.9-0.4s0.4-0.5,0.4-0.9l-0.1-9.5l6.9-9.8c0.3-0.4,0.3-0.9,0.1-1.3
	c-0.2-0.4-0.6-0.7-1.1-0.7h-4.4c-0.3,0-0.6,0.1-0.9,0.4c-0.2,0.2-0.4,0.5-0.4,0.9l0.1,5.3l-1.4,1.8l-2.3,0V26.9h14l6.3,4.5v5.6
	c0,0.7,0.5,1.2,1.2,1.2h7v3.5H29.8v-2.8c0-0.5-0.3-1-0.8-1.1c-0.5-0.2-1,0-1.3,0.4l-3.7,5c-0.2,0.3-0.3,0.6-0.2,0.9
	c0.1,0.3,0.2,0.6,0.5,0.8l7.1,4.9l0.1,12.2h-3.7v-9.4c0-0.4-0.2-0.8-0.6-1l-5.8-3.8c-0.4-0.3-0.8-0.3-1.2-0.1
	c-0.4,0.2-0.6,0.6-0.6,1.1v7.6H5.4V52.2z"/>
<path class="st0" d="M28.5,21.1c0,4,3.2,7.2,7.2,7.2s7.2-3.2,7.2-7.2s-3.2-7.2-7.2-7.2C31.7,13.9,28.5,17.1,28.5,21.1z M30.9,21.1
	c0-2.7,2.2-4.8,4.8-4.8c2.7,0,4.8,2.2,4.8,4.8s-2.2,4.8-4.8,4.8S30.9,23.8,30.9,21.1z"/>
<path class="st1" d="M19.3,61.5v7.2c0,1,0.8,1.8,1.8,1.8h37.8c1,0,1.8-0.8,1.8-1.8V6.3c0-1-0.8-1.8-1.8-1.8H21.2
	c-1,0-1.8,0.8-1.8,1.8V22H23V8.1h34.1v58.8H22.9v-5.4H19.3z"/>
</svg>
