<?xml version="1.0" encoding="utf-8"?>
<!-- Generator: Adobe Illustrator 21.0.0, SVG Export Plug-In . SVG Version: 6.00 Build 0)  -->
<svg version="1.1" id="Layer_1" xmlns="http://www.w3.org/2000/svg" xmlns:xlink="http://www.w3.org/1999/xlink" x="0px" y="0px"
	 viewBox="0 0 75 75" style="enable-background:new 0 0 75 75;" xml:space="preserve">
<style type="text/css">
	.st0{fill:#4D4D4D;}
</style>
<path class="st0" d="M67.6,67.3L39.3,19.6l8-13.5l-2.7-1.6l-7.1,12l-7.1-12l-2.7,1.6l8,13.5L7.4,67.3H1.2v3.2h72.7v-3.2H67.6z
	 M37.5,22.7L64,67.3H48.3c0.3-3.8,0.6-12.8-3.5-17.6c-1.8-2.1-4.3-3.2-7.3-3.2c-3,0-5.4,1.1-7.3,3.2c-4.1,4.8-3.9,13.7-3.5,17.6H11
	L37.5,22.7z M29.9,67.3c-0.4-4-0.4-11.8,2.7-15.5c1.2-1.4,2.8-2.1,4.9-2.1c2.1,0,3.7,0.7,4.9,2.1c3.4,4,3,12.3,2.7,15.5L29.9,67.3
	L29.9,67.3z"/>
</svg>
