<?xml version="1.0" encoding="utf-8"?>
<!-- Generator: Adobe Illustrator 21.0.0, SVG Export Plug-In . SVG Version: 6.00 Build 0)  -->
<svg version="1.1" id="Layer_1" xmlns="http://www.w3.org/2000/svg" xmlns:xlink="http://www.w3.org/1999/xlink" x="0px" y="0px"
	 viewBox="0 0 100 100" style="enable-background:new 0 0 100 100;" xml:space="preserve">
<style type="text/css">
	.st0{fill:#F9BA48;}
	.st1{fill:#333333;}
</style>
<polygon class="st0" points="50.4,99.7 39,99.7 50.4,44.6 "/>
<path class="st1" d="M9.8,28.3h27.6c6.3,0,11.3-5.1,11.3-11.3S43.7,5.6,37.4,5.6c-1.3,0-2.7,0.2-3.9,0.7C31,2.9,27.1,0.8,22.8,0.8
	c-5.3,0-10.1,3.3-12,8.2c-0.3,0-0.6-0.1-0.9-0.1c-5.4,0-9.7,4.4-9.7,9.7S4.5,28.3,9.8,28.3z M9.8,12.1c0.5,0,1,0.1,1.6,0.2l1.6,0.4
	l0.4-1.6C14.6,7,18.4,4,22.8,4c3.6,0,6.9,2,8.6,5.2l0.8,1.4l1.4-0.8c1.2-0.6,2.5-1,3.8-1c4.5,0,8.1,3.6,8.1,8.1S41.8,25,37.4,25H9.8
	c-3.6,0-6.5-2.9-6.5-6.5S6.3,12.1,9.8,12.1z"/>
<path class="st1" d="M91.9,41.3h8.1l-8.9-17.9h5.7L84.4-1.2L72.1,23.5h5.7l-8.9,17.9h8.1l-8.1,16.2h10.6l-1.2,16.6L50.4,38.7
	L13.5,85.6l-6.2,5l-0.8-2.7l-3.1,0.9l2.7,9.3H1.7v3.3h11.3h74.6H99v-3.3h-4.3l2.7-9.3l-3.1-0.9l-0.8,2.7l-0.9-0.8h0l-3.1-32.3h10.6
	L91.9,41.3z M48.8,57.3v40.8h-9.3L48.8,57.3z M36.6,95.7c-1.3-3.5-4.4-6.2-8.1-7.1l17.9-35.9L36.6,95.7z M9.4,98.1l-1.2-4.1l4.8-3.8
	v8L9.4,98.1L9.4,98.1z M16.3,87.3l25.5-32.4L23.4,91.6h2.6c3.9,0,7.2,2.8,8,6.5H16.3V87.3z M52,98.1V46l32.5,41.3v10.8H52z
	 M91.3,98.1h-3.6v-8l4.8,3.8L91.3,98.1z M89,87l-1.8-1.5l-6-7.7L83,54.3h-8.9L82.2,38h-8.1L83,20.2h-5.7l7.1-14.2l7.1,14.2h-5.7
	L94.8,38h-8.1l8.1,16.2h-8.9L89,87z"/>
</svg>
