<svg xmlns="http://www.w3.org/2000/svg" viewBox="0 0 296.4 296.4"><style>.a{fill:#333;}</style><polygon points="149.1 291.7 116.3 291.7 149.1 132.4 " fill="#F9BA48"/><path d="M31.9 85.5h79.7c18.1 0 32.8-14.7 32.8-32.8s-14.7-32.8-32.8-32.8c-3.9 0-7.8 0.7-11.4 2 -7-10-18.4-16.1-30.8-16.1 -15.4 0-29.2 9.5-34.8 23.6 -0.9-0.1-1.8-0.2-2.7-0.2 -15.5 0-28.1 12.6-28.1 28.1S16.4 85.5 31.9 85.5zM31.9 38.6c1.4 0 2.9 0.2 4.7 0.7l4.5 1.2 1.2-4.5c3.3-12.2 14.5-20.8 27.1-20.8 10.4 0 19.9 5.7 24.8 14.9l2.2 4.1 4.1-2.2c3.4-1.8 7.1-2.8 11-2.8 12.9 0 23.4 10.5 23.4 23.4s-10.5 23.4-23.4 23.4H31.9c-10.3 0-18.7-8.4-18.7-18.7S21.6 38.6 31.9 38.6z" class="a"/><path d="M269.2 123h23.4l-25.8-51.6h16.4L247.5 0 211.8 71.4h16.4l-25.8 51.6h23.4l-23.4 46.9h30.7l-3.5 47.9 -80.5-102.4L42.6 250.9 24.6 265.4l-2.2-7.7 -9 2.6 7.7 26.8H8.5v9.4H41.3h215.6 32.8v-9.4h-12.5l7.7-26.8 -9-2.6 -2.2 7.7 -2.7-2.2 0.1 0 -8.9-93.3h30.6L269.2 123zM144.4 169.2v117.8H117.5L144.4 169.2zM109.4 280.1c-3.9-10.2-12.7-18-23.5-20.4l51.8-103.7L109.4 280.1zM30.8 287l-3.4-11.9 13.9-11.1v23.1H30.8zM50.7 255.9l73.6-93.7L71.2 268.3h7.6c11.3 0 20.8 8.1 23 18.8H50.7V255.9zM153.8 287V136.5l93.8 119.3v31.2H153.8zM267.4 287h-10.5v-23.1l13.9 11.1L267.4 287zM260.8 255.1l-5.2-4.2 -17.4-22.2 5.1-68.3h-25.6l23.4-46.9h-23.4l25.8-51.6h-16.4l20.5-41.1 20.5 41.1h-16.4l25.8 51.6h-23.4l23.4 46.9h-25.7L260.8 255.1z" class="a"/></svg>